<svg width="18" height="18" viewBox="0 0 18 18" fill="none" xmlns="http://www.w3.org/2000/svg">
<path d="M16.5 12.69V14.94C16.5017 15.3623 16.3252 15.7658 16.014 16.0514C15.7028 16.3369 15.2856 16.478 14.865 16.44C12.5571 16.1892 10.3402 15.4006 8.39246 14.1375C6.58033 12.9859 5.04396 11.4496 3.89246 9.63745C2.62494 7.68086 1.83614 5.4532 1.58996 3.13495C1.55206 2.71561 1.69216 2.29964 1.97603 1.98867C2.2599 1.67769 2.6614 1.50035 3.08246 1.49995H5.33246C6.08535 1.49254 6.72708 2.04443 6.83246 2.78995C6.92742 3.51 7.10354 4.217 7.35746 4.89745C7.56351 5.44561 7.43172 6.06356 7.01996 6.47995L6.06746 7.43245C7.13512 9.31011 8.6898 10.8648 10.5675 11.9325L11.52 10.98C11.9363 10.5682 12.5543 10.4364 13.1025 10.6425C13.7829 10.8964 14.4899 11.0725 15.21 11.1675C15.9641 11.2738 16.5188 11.9285 16.5 12.69V12.69" stroke="#6B7280" stroke-width="1.5" stroke-linecap="round" stroke-linejoin="round"/>
</svg>
